<mxfile host="65bd71144e">
    <diagram id="EsVaXnBHlEEKosVL50em" name="Page-1">
        <mxGraphModel dx="1296" dy="273" grid="1" gridSize="10" guides="1" tooltips="1" connect="1" arrows="1" fold="1" page="1" pageScale="1" pageWidth="827" pageHeight="1169" math="0" shadow="0">
            <root>
                <mxCell id="0"/>
                <mxCell id="1" parent="0"/>
                <mxCell id="0xS0S5AWN3297I2jAuM9-8" value="Purchase page" style="shape=umlLifeline;perimeter=lifelinePerimeter;whiteSpace=wrap;html=1;container=1;collapsible=0;recursiveResize=0;outlineConnect=0;fontSize=14;" parent="1" vertex="1">
                    <mxGeometry x="350" y="80" width="145" height="990" as="geometry"/>
                </mxCell>
                <mxCell id="2" value="" style="html=1;points=[];perimeter=orthogonalPerimeter;fontSize=14;" vertex="1" parent="0xS0S5AWN3297I2jAuM9-8">
                    <mxGeometry x="67.5" y="80" width="10" height="30" as="geometry"/>
                </mxCell>
                <mxCell id="6" value="" style="html=1;points=[];perimeter=orthogonalPerimeter;fontSize=14;" vertex="1" parent="0xS0S5AWN3297I2jAuM9-8">
                    <mxGeometry x="67.5" y="150" width="10" height="140" as="geometry"/>
                </mxCell>
                <mxCell id="17" value="" style="html=1;points=[];perimeter=orthogonalPerimeter;fontSize=14;" vertex="1" parent="0xS0S5AWN3297I2jAuM9-8">
                    <mxGeometry x="67.5" y="460" width="10" height="280" as="geometry"/>
                </mxCell>
                <mxCell id="15" value="" style="html=1;points=[];perimeter=orthogonalPerimeter;fontSize=14;" vertex="1" parent="0xS0S5AWN3297I2jAuM9-8">
                    <mxGeometry x="67.5" y="320" width="10" height="40" as="geometry"/>
                </mxCell>
                <mxCell id="23" value="" style="html=1;points=[];perimeter=orthogonalPerimeter;fontSize=14;" vertex="1" parent="0xS0S5AWN3297I2jAuM9-8">
                    <mxGeometry x="67.5" y="790" width="10" height="60" as="geometry"/>
                </mxCell>
                <mxCell id="0xS0S5AWN3297I2jAuM9-11" style="rounded=0;orthogonalLoop=1;jettySize=auto;html=1;endArrow=block;endFill=1;startArrow=none;startFill=0;fontSize=14;" parent="1" source="2" target="xFDVyft1GGpR64SZNUxC-1" edge="1">
                    <mxGeometry relative="1" as="geometry">
                        <Array as="points">
                            <mxPoint x="370" y="170"/>
                        </Array>
                        <mxPoint x="100" y="170" as="targetPoint"/>
                        <mxPoint x="340" y="180" as="sourcePoint"/>
                    </mxGeometry>
                </mxCell>
                <mxCell id="0xS0S5AWN3297I2jAuM9-12" value="display invoice" style="edgeLabel;html=1;align=center;verticalAlign=middle;resizable=0;points=[];fontSize=14;" parent="0xS0S5AWN3297I2jAuM9-11" vertex="1" connectable="0">
                    <mxGeometry x="-0.125" relative="1" as="geometry">
                        <mxPoint x="1" as="offset"/>
                    </mxGeometry>
                </mxCell>
                <mxCell id="0xS0S5AWN3297I2jAuM9-45" style="edgeStyle=none;rounded=0;orthogonalLoop=1;jettySize=auto;html=1;startArrow=none;startFill=0;endArrow=block;endFill=1;fontSize=14;" parent="1" target="23" edge="1" source="xFDVyft1GGpR64SZNUxC-1">
                    <mxGeometry relative="1" as="geometry">
                        <mxPoint x="90" y="850" as="sourcePoint"/>
                        <mxPoint x="400" y="880" as="targetPoint"/>
                    </mxGeometry>
                </mxCell>
                <mxCell id="0xS0S5AWN3297I2jAuM9-46" value="[Successful Authentication] Click &quot;Purchase&quot;&amp;nbsp;" style="edgeLabel;html=1;align=center;verticalAlign=middle;resizable=0;points=[];fontSize=14;" parent="0xS0S5AWN3297I2jAuM9-45" vertex="1" connectable="0">
                    <mxGeometry x="0.0558" y="4" relative="1" as="geometry">
                        <mxPoint x="-13" y="-6" as="offset"/>
                    </mxGeometry>
                </mxCell>
                <mxCell id="gZEta6P0kwbHWT-XyPAT-2" style="rounded=0;orthogonalLoop=1;jettySize=auto;html=1;fontSize=14;entryX=-0.15;entryY=0.421;entryDx=0;entryDy=0;entryPerimeter=0;" parent="1" source="xFDVyft1GGpR64SZNUxC-1" target="6" edge="1">
                    <mxGeometry relative="1" as="geometry">
                        <mxPoint x="340" y="270" as="targetPoint"/>
                        <mxPoint x="100" y="270" as="sourcePoint"/>
                    </mxGeometry>
                </mxCell>
                <mxCell id="cLYbRQgXPTkhqoHg8WAR-2" value="[Unauthenticated] send (info)" style="edgeLabel;html=1;align=center;verticalAlign=middle;resizable=0;points=[];fontSize=14;" parent="gZEta6P0kwbHWT-XyPAT-2" connectable="0" vertex="1">
                    <mxGeometry x="-0.6617" y="1" relative="1" as="geometry">
                        <mxPoint x="68" y="-9" as="offset"/>
                    </mxGeometry>
                </mxCell>
                <mxCell id="gZEta6P0kwbHWT-XyPAT-6" style="edgeStyle=none;rounded=0;orthogonalLoop=1;jettySize=auto;html=1;fontSize=14;" parent="1" source="0xS0S5AWN3297I2jAuM9-10" target="15" edge="1">
                    <mxGeometry relative="1" as="geometry">
                        <Array as="points">
                            <mxPoint x="250" y="410"/>
                        </Array>
                        <mxPoint x="330" y="360" as="targetPoint"/>
                        <mxPoint x="100" y="360" as="sourcePoint"/>
                    </mxGeometry>
                </mxCell>
                <mxCell id="gZEta6P0kwbHWT-XyPAT-7" value="[Authenticated] send (Points)" style="edgeLabel;html=1;align=center;verticalAlign=middle;resizable=0;points=[];fontSize=14;" parent="gZEta6P0kwbHWT-XyPAT-6" vertex="1" connectable="0">
                    <mxGeometry x="-0.0377" y="-4" relative="1" as="geometry">
                        <mxPoint y="-14" as="offset"/>
                    </mxGeometry>
                </mxCell>
                <mxCell id="0xS0S5AWN3297I2jAuM9-10" value="Customer" style="shape=umlLifeline;participant=umlActor;perimeter=lifelinePerimeter;whiteSpace=wrap;html=1;container=1;collapsible=0;recursiveResize=0;verticalAlign=top;spacingTop=36;outlineConnect=0;fontSize=14;" parent="1" vertex="1">
                    <mxGeometry x="60" y="80" width="20" height="1000" as="geometry"/>
                </mxCell>
                <mxCell id="H4JG7rDhMhPvmTt1vxnm-16" value="Bank System" style="shape=umlLifeline;perimeter=lifelinePerimeter;whiteSpace=wrap;html=1;container=1;collapsible=0;recursiveResize=0;outlineConnect=0;fontSize=14;" parent="1" vertex="1">
                    <mxGeometry x="666" y="80" width="120" height="1000" as="geometry"/>
                </mxCell>
                <mxCell id="40" value="" style="html=1;points=[];perimeter=orthogonalPerimeter;fontSize=14;" vertex="1" parent="H4JG7rDhMhPvmTt1vxnm-16">
                    <mxGeometry x="55" y="480" width="10" height="100" as="geometry"/>
                </mxCell>
                <mxCell id="0xS0S5AWN3297I2jAuM9-32" value="Digital Wallet System" style="shape=umlLifeline;perimeter=lifelinePerimeter;whiteSpace=wrap;html=1;container=1;collapsible=0;recursiveResize=0;outlineConnect=0;fontSize=14;" parent="1" vertex="1">
                    <mxGeometry x="916" y="80" width="120" height="1000" as="geometry"/>
                </mxCell>
                <mxCell id="41" value="" style="html=1;points=[];perimeter=orthogonalPerimeter;fontSize=14;" vertex="1" parent="0xS0S5AWN3297I2jAuM9-32">
                    <mxGeometry x="55" y="680" width="10" height="70" as="geometry"/>
                </mxCell>
                <mxCell id="cLYbRQgXPTkhqoHg8WAR-3" style="rounded=0;orthogonalLoop=1;jettySize=auto;html=1;dashed=1;fontSize=14;endArrow=open;endFill=0;" parent="1" source="16" target="6" edge="1">
                    <mxGeometry relative="1" as="geometry">
                        <mxPoint x="422" y="360" as="targetPoint"/>
                        <mxPoint x="1170" y="340" as="sourcePoint"/>
                        <Array as="points">
                            <mxPoint x="620" y="360"/>
                        </Array>
                    </mxGeometry>
                </mxCell>
                <mxCell id="gZEta6P0kwbHWT-XyPAT-11" value="[Valid] Message (&quot;OK&quot;)" style="edgeLabel;html=1;align=center;verticalAlign=middle;resizable=0;points=[];fontSize=14;" parent="cLYbRQgXPTkhqoHg8WAR-3" vertex="1" connectable="0">
                    <mxGeometry x="0.0351" y="-1" relative="1" as="geometry">
                        <mxPoint as="offset"/>
                    </mxGeometry>
                </mxCell>
                <mxCell id="0xS0S5AWN3297I2jAuM9-66" value="Web System" style="shape=umlLifeline;perimeter=lifelinePerimeter;whiteSpace=wrap;html=1;container=1;collapsible=0;recursiveResize=0;outlineConnect=0;fontSize=14;" parent="1" vertex="1">
                    <mxGeometry x="1190" y="80" width="120" height="1000" as="geometry"/>
                </mxCell>
                <mxCell id="16" value="" style="html=1;points=[];perimeter=orthogonalPerimeter;fontSize=14;" vertex="1" parent="0xS0S5AWN3297I2jAuM9-66">
                    <mxGeometry x="55" y="200" width="10" height="110" as="geometry"/>
                </mxCell>
                <mxCell id="24" value="" style="html=1;points=[];perimeter=orthogonalPerimeter;fontSize=14;" vertex="1" parent="0xS0S5AWN3297I2jAuM9-66">
                    <mxGeometry x="55" y="810" width="10" height="150" as="geometry"/>
                </mxCell>
                <mxCell id="gZEta6P0kwbHWT-XyPAT-4" style="rounded=0;orthogonalLoop=1;jettySize=auto;html=1;dashed=1;fontSize=14;endArrow=open;endFill=0;" parent="1" source="16" target="6" edge="1">
                    <mxGeometry relative="1" as="geometry">
                        <mxPoint x="1216" y="330" as="sourcePoint"/>
                        <mxPoint x="423" y="363" as="targetPoint"/>
                    </mxGeometry>
                </mxCell>
                <mxCell id="gZEta6P0kwbHWT-XyPAT-5" value="[Invalid] Message (Invalid Information)" style="edgeLabel;html=1;align=center;verticalAlign=middle;resizable=0;points=[];fontSize=14;" parent="gZEta6P0kwbHWT-XyPAT-4" vertex="1" connectable="0">
                    <mxGeometry x="0.1239" y="5" relative="1" as="geometry">
                        <mxPoint x="38" y="-5" as="offset"/>
                    </mxGeometry>
                </mxCell>
                <mxCell id="0xS0S5AWN3297I2jAuM9-24" style="rounded=0;orthogonalLoop=1;jettySize=auto;html=1;startArrow=none;startFill=0;endArrow=block;endFill=1;fontSize=14;exitX=0.05;exitY=0.157;exitDx=0;exitDy=0;exitPerimeter=0;" parent="1" source="6" target="xFDVyft1GGpR64SZNUxC-1" edge="1">
                    <mxGeometry relative="1" as="geometry">
                        <mxPoint x="340" y="230" as="sourcePoint"/>
                        <mxPoint x="90" y="230" as="targetPoint"/>
                    </mxGeometry>
                </mxCell>
                <mxCell id="0xS0S5AWN3297I2jAuM9-27" value="Ask Information" style="edgeLabel;html=1;align=center;verticalAlign=middle;resizable=0;points=[];fontSize=14;" parent="0xS0S5AWN3297I2jAuM9-24" vertex="1" connectable="0">
                    <mxGeometry x="-0.16" y="1" relative="1" as="geometry">
                        <mxPoint x="1" as="offset"/>
                    </mxGeometry>
                </mxCell>
                <mxCell id="gZEta6P0kwbHWT-XyPAT-8" value="Authentication(info)" style="html=1;verticalAlign=bottom;endArrow=block;rounded=0;fontSize=14;" parent="1" source="6" target="16" edge="1">
                    <mxGeometry width="80" relative="1" as="geometry">
                        <mxPoint x="406" y="280" as="sourcePoint"/>
                        <mxPoint x="1200" y="310" as="targetPoint"/>
                        <Array as="points">
                            <mxPoint x="920" y="310"/>
                        </Array>
                    </mxGeometry>
                </mxCell>
                <mxCell id="gZEta6P0kwbHWT-XyPAT-16" value="[choose pay by point]" style="text;html=1;align=center;verticalAlign=middle;resizable=0;points=[];autosize=1;strokeColor=none;fillColor=none;fontSize=14;" parent="1" vertex="1">
                    <mxGeometry x="75" y="210" width="150" height="20" as="geometry"/>
                </mxCell>
                <mxCell id="0xS0S5AWN3297I2jAuM9-30" style="rounded=0;orthogonalLoop=1;jettySize=auto;html=1;startArrow=none;startFill=0;endArrow=block;endFill=1;fontSize=14;" parent="1" target="17" edge="1" source="xFDVyft1GGpR64SZNUxC-1">
                    <mxGeometry relative="1" as="geometry">
                        <mxPoint x="380" y="740" as="targetPoint"/>
                        <mxPoint x="80" y="740" as="sourcePoint"/>
                        <Array as="points">
                            <mxPoint x="390" y="740"/>
                        </Array>
                    </mxGeometry>
                </mxCell>
                <mxCell id="gZEta6P0kwbHWT-XyPAT-19" value="Send Info (Info)" style="edgeLabel;html=1;align=center;verticalAlign=middle;resizable=0;points=[];fontSize=14;" parent="0xS0S5AWN3297I2jAuM9-30" vertex="1" connectable="0">
                    <mxGeometry x="-0.034" y="-5" relative="1" as="geometry">
                        <mxPoint x="-45" y="-15" as="offset"/>
                    </mxGeometry>
                </mxCell>
                <mxCell id="auK02p0XqwQrwLWtQNWY-16" style="rounded=0;orthogonalLoop=1;jettySize=auto;html=1;dashed=1;endArrow=open;endFill=0;fontSize=14;endSize=10;" parent="1" source="40" target="17" edge="1">
                    <mxGeometry relative="1" as="geometry">
                        <mxPoint x="710" y="600" as="sourcePoint"/>
                        <mxPoint x="440" y="600" as="targetPoint"/>
                        <Array as="points">
                            <mxPoint x="680" y="600"/>
                        </Array>
                    </mxGeometry>
                </mxCell>
                <mxCell id="auK02p0XqwQrwLWtQNWY-18" value="[Valid] Message(&quot;OK&quot;)" style="edgeLabel;html=1;align=center;verticalAlign=middle;resizable=0;points=[];fontSize=14;" parent="auK02p0XqwQrwLWtQNWY-16" connectable="0" vertex="1">
                    <mxGeometry x="0.2465" y="2" relative="1" as="geometry">
                        <mxPoint x="24" y="-2" as="offset"/>
                    </mxGeometry>
                </mxCell>
                <mxCell id="0xS0S5AWN3297I2jAuM9-64" style="edgeStyle=none;rounded=0;orthogonalLoop=1;jettySize=auto;html=1;startArrow=none;startFill=0;endArrow=openThin;endFill=0;dashed=1;fontSize=14;endSize=10;" parent="1" source="41" target="17" edge="1">
                    <mxGeometry relative="1" as="geometry">
                        <Array as="points">
                            <mxPoint x="790" y="790"/>
                        </Array>
                        <mxPoint x="930" y="780" as="sourcePoint"/>
                        <mxPoint x="440" y="790" as="targetPoint"/>
                    </mxGeometry>
                </mxCell>
                <mxCell id="18" value="[Valid] Message(&quot;OK&quot;)" style="edgeLabel;html=1;align=center;verticalAlign=middle;resizable=0;points=[];fontSize=14;" vertex="1" connectable="0" parent="0xS0S5AWN3297I2jAuM9-64">
                    <mxGeometry x="-0.2825" y="-3" relative="1" as="geometry">
                        <mxPoint x="-206" y="3" as="offset"/>
                    </mxGeometry>
                </mxCell>
                <mxCell id="gZEta6P0kwbHWT-XyPAT-22" style="edgeStyle=none;rounded=0;orthogonalLoop=1;jettySize=auto;html=1;startArrow=none;startFill=0;endArrow=openThin;endFill=0;dashed=1;fontSize=14;endSize=10;" parent="1" source="41" target="17" edge="1">
                    <mxGeometry relative="1" as="geometry">
                        <mxPoint x="930" y="800" as="sourcePoint"/>
                        <mxPoint x="440" y="820" as="targetPoint"/>
                        <Array as="points">
                            <mxPoint x="520" y="820"/>
                        </Array>
                    </mxGeometry>
                </mxCell>
                <mxCell id="gZEta6P0kwbHWT-XyPAT-23" value="[Invalid] Message(&quot;Invalid Information&quot;)" style="edgeLabel;html=1;align=center;verticalAlign=middle;resizable=0;points=[];fontSize=14;" parent="gZEta6P0kwbHWT-XyPAT-22" vertex="1" connectable="0">
                    <mxGeometry x="-0.1114" relative="1" as="geometry">
                        <mxPoint x="-130" as="offset"/>
                    </mxGeometry>
                </mxCell>
                <mxCell id="gZEta6P0kwbHWT-XyPAT-28" value="Message(&quot;Succesful Transaction&quot;)" style="html=1;verticalAlign=bottom;endArrow=open;dashed=1;endSize=8;rounded=0;fontSize=14;" parent="1" source="24" target="23" edge="1">
                    <mxGeometry relative="1" as="geometry">
                        <mxPoint x="1230" y="900" as="sourcePoint"/>
                        <mxPoint x="450" y="990" as="targetPoint"/>
                        <Array as="points">
                            <mxPoint x="670" y="920"/>
                        </Array>
                    </mxGeometry>
                </mxCell>
                <mxCell id="5BrfaUf6oUBGYmDF4iaM-1" value="Log Transaction (info, Total order value)" style="html=1;verticalAlign=bottom;endArrow=block;rounded=0;fontSize=14;" parent="1" source="23" edge="1" target="24">
                    <mxGeometry width="80" relative="1" as="geometry">
                        <mxPoint x="450" y="950" as="sourcePoint"/>
                        <mxPoint x="1230" y="860" as="targetPoint"/>
                        <Array as="points">
                            <mxPoint x="530" y="890"/>
                        </Array>
                    </mxGeometry>
                </mxCell>
                <mxCell id="xFDVyft1GGpR64SZNUxC-1" value="" style="html=1;points=[];perimeter=orthogonalPerimeter;fontSize=14;" parent="1" vertex="1">
                    <mxGeometry x="65" y="170" width="10" height="770" as="geometry"/>
                </mxCell>
                <mxCell id="0xS0S5AWN3297I2jAuM9-38" style="edgeStyle=none;rounded=0;orthogonalLoop=1;jettySize=auto;html=1;startArrow=none;startFill=0;endArrow=block;endFill=1;fontSize=14;endSize=10;" parent="1" source="17" target="40" edge="1">
                    <mxGeometry relative="1" as="geometry">
                        <mxPoint x="460" y="590" as="sourcePoint"/>
                        <mxPoint x="660" y="490" as="targetPoint"/>
                        <Array as="points">
                            <mxPoint x="460" y="560"/>
                        </Array>
                    </mxGeometry>
                </mxCell>
                <mxCell id="0xS0S5AWN3297I2jAuM9-39" value="Authenticate(info)" style="edgeLabel;html=1;align=center;verticalAlign=middle;resizable=0;points=[];fontSize=14;" parent="0xS0S5AWN3297I2jAuM9-38" vertex="1" connectable="0">
                    <mxGeometry x="0.0158" y="2" relative="1" as="geometry">
                        <mxPoint as="offset"/>
                    </mxGeometry>
                </mxCell>
                <mxCell id="5" value="[Invalid] Message (&quot;Invalid Information&quot;)" style="html=1;verticalAlign=bottom;endArrow=open;dashed=1;endSize=10;fontSize=14;" edge="1" parent="1" source="40" target="17">
                    <mxGeometry relative="1" as="geometry">
                        <mxPoint x="700" y="650" as="sourcePoint"/>
                        <mxPoint x="450" y="650" as="targetPoint"/>
                        <Array as="points">
                            <mxPoint x="700" y="640"/>
                        </Array>
                    </mxGeometry>
                </mxCell>
                <mxCell id="auK02p0XqwQrwLWtQNWY-29" style="edgeStyle=none;rounded=0;orthogonalLoop=1;jettySize=auto;html=1;startArrow=none;startFill=0;endArrow=block;endFill=1;fontSize=14;" parent="1" edge="1" target="41" source="17">
                    <mxGeometry relative="1" as="geometry">
                        <mxPoint x="450" y="760" as="sourcePoint"/>
                        <mxPoint x="930" y="720" as="targetPoint"/>
                        <Array as="points">
                            <mxPoint x="770" y="760"/>
                        </Array>
                    </mxGeometry>
                </mxCell>
                <mxCell id="auK02p0XqwQrwLWtQNWY-30" value="Authenticate(info)" style="edgeLabel;html=1;align=center;verticalAlign=middle;resizable=0;points=[];fontSize=14;" parent="auK02p0XqwQrwLWtQNWY-29" connectable="0" vertex="1">
                    <mxGeometry x="0.0158" y="2" relative="1" as="geometry">
                        <mxPoint x="-108" as="offset"/>
                    </mxGeometry>
                </mxCell>
                <mxCell id="gZEta6P0kwbHWT-XyPAT-12" style="rounded=0;orthogonalLoop=1;jettySize=auto;html=1;endArrow=block;endFill=1;startArrow=none;startFill=0;fontSize=14;" parent="1" source="15" target="xFDVyft1GGpR64SZNUxC-1" edge="1">
                    <mxGeometry relative="1" as="geometry">
                        <mxPoint x="410" y="429" as="sourcePoint"/>
                        <mxPoint x="90" y="430" as="targetPoint"/>
                        <Array as="points">
                            <mxPoint x="350" y="430"/>
                        </Array>
                    </mxGeometry>
                </mxCell>
                <mxCell id="gZEta6P0kwbHWT-XyPAT-13" value="display invoice" style="edgeLabel;html=1;align=center;verticalAlign=middle;resizable=0;points=[];fontSize=14;" parent="gZEta6P0kwbHWT-XyPAT-12" vertex="1" connectable="0">
                    <mxGeometry x="-0.125" relative="1" as="geometry">
                        <mxPoint x="1" as="offset"/>
                    </mxGeometry>
                </mxCell>
                <mxCell id="29" value="" style="html=1;points=[];perimeter=orthogonalPerimeter;fontSize=14;" vertex="1" parent="1">
                    <mxGeometry x="1250" y="990" width="10" height="40" as="geometry"/>
                </mxCell>
                <mxCell id="30" value="&lt;span style=&quot;text-align: center&quot;&gt;[Authenticated] Accumulate_Points(info, Total order value)&lt;/span&gt;" style="edgeStyle=orthogonalEdgeStyle;html=1;align=left;spacingLeft=2;endArrow=block;rounded=0;entryX=1;entryY=0;fontSize=14;endSize=10;" edge="1" target="29" parent="1" source="24">
                    <mxGeometry x="0.6364" y="20" relative="1" as="geometry">
                        <mxPoint x="1255" y="880" as="sourcePoint"/>
                        <Array as="points">
                            <mxPoint x="1290" y="950"/>
                            <mxPoint x="1290" y="990"/>
                        </Array>
                        <mxPoint as="offset"/>
                    </mxGeometry>
                </mxCell>
                <mxCell id="38" style="rounded=0;orthogonalLoop=1;jettySize=auto;html=1;startArrow=none;startFill=0;endArrow=block;endFill=1;fontSize=14;" edge="1" parent="1" source="xFDVyft1GGpR64SZNUxC-1" target="17">
                    <mxGeometry relative="1" as="geometry">
                        <mxPoint x="400" y="500" as="targetPoint"/>
                        <Array as="points">
                            <mxPoint x="340" y="550"/>
                        </Array>
                        <mxPoint x="90" y="500" as="sourcePoint"/>
                    </mxGeometry>
                </mxCell>
                <mxCell id="39" value="Send Info (Info)" style="edgeLabel;html=1;align=center;verticalAlign=middle;resizable=0;points=[];fontSize=14;" vertex="1" connectable="0" parent="38">
                    <mxGeometry x="-0.034" y="-5" relative="1" as="geometry">
                        <mxPoint x="-45" y="-15" as="offset"/>
                    </mxGeometry>
                </mxCell>
                <mxCell id="43" value="&lt;span style=&quot;background-color: rgb(255 , 255 , 255)&quot;&gt;[choose Digital wallet payment]&lt;/span&gt;" style="text;html=1;align=center;verticalAlign=middle;resizable=0;points=[];autosize=1;strokeColor=none;fontSize=14;" vertex="1" parent="1">
                    <mxGeometry x="70" y="680" width="210" height="20" as="geometry"/>
                </mxCell>
                <mxCell id="45" value="[&lt;span style=&quot;background-color: rgb(255 , 255 , 255)&quot;&gt;choose Credit card payment]&lt;/span&gt;" style="text;html=1;align=center;verticalAlign=middle;resizable=0;points=[];autosize=1;strokeColor=none;fontSize=14;" vertex="1" parent="1">
                    <mxGeometry x="75" y="480" width="200" height="20" as="geometry"/>
                </mxCell>
                <mxCell id="48" value="" style="endArrow=none;dashed=1;html=1;strokeWidth=1;fontSize=14;endSize=10;rounded=0;exitX=0.001;exitY=0.538;exitDx=0;exitDy=0;exitPerimeter=0;" edge="1" parent="1" source="46">
                    <mxGeometry width="50" height="50" relative="1" as="geometry">
                        <mxPoint y="680" as="sourcePoint"/>
                        <mxPoint x="1290" y="680" as="targetPoint"/>
                        <Array as="points"/>
                    </mxGeometry>
                </mxCell>
                <mxCell id="46" value="Alt" style="shape=umlFrame;whiteSpace=wrap;html=1;fontSize=14;" vertex="1" parent="1">
                    <mxGeometry x="-10" y="480" width="1300" height="370" as="geometry"/>
                </mxCell>
                <mxCell id="31" value="Optional" style="shape=umlFrame;whiteSpace=wrap;html=1;fontSize=14;" vertex="1" parent="1">
                    <mxGeometry x="-10" y="210" width="1300" height="240" as="geometry"/>
                </mxCell>
            </root>
        </mxGraphModel>
    </diagram>
</mxfile>